<svg xmlns="http://www.w3.org/2000/svg" xmlns:xlink="http://www.w3.org/1999/xlink" width="1920" zoomAndPan="magnify" viewBox="0 0 1440 809.999993" height="1080" preserveAspectRatio="xMidYMid meet" version="1.0"><defs><clipPath id="9c94756aba"><path d="M 1060.9375 405 L 1273.347656 405 L 1273.347656 754.933594 L 1060.9375 754.933594 Z M 1060.9375 405 " clip-rule="nonzero"/></clipPath><clipPath id="8be6b1551a"><path d="M 1340.78125 142.25 L 1440 142.25 L 1440 340.683594 L 1340.78125 340.683594 Z M 1340.78125 142.25 " clip-rule="nonzero"/></clipPath><clipPath id="91b9d3249a"><path d="M 1440 142.25 C 1385.203125 142.25 1340.78125 186.671875 1340.78125 241.46875 C 1340.78125 296.261719 1385.203125 340.683594 1440 340.683594 C 1494.796875 340.683594 1539.21875 296.261719 1539.21875 241.46875 C 1539.21875 186.671875 1494.796875 142.25 1440 142.25 Z M 1440 142.25 " clip-rule="nonzero"/></clipPath><clipPath id="f04e6abdc4"><path d="M 0 285.328125 L 429.527344 285.328125 L 429.527344 754.933594 L 0 754.933594 Z M 0 285.328125 " clip-rule="nonzero"/></clipPath><clipPath id="885fd29237"><path d="M 194.722656 285.328125 C 65.046875 285.328125 -40.078125 390.453125 -40.078125 520.128906 C -40.078125 649.808594 65.046875 754.933594 194.722656 754.933594 C 324.402344 754.933594 429.527344 649.808594 429.527344 520.128906 C 429.527344 390.453125 324.402344 285.328125 194.722656 285.328125 Z M 194.722656 285.328125 " clip-rule="nonzero"/></clipPath></defs><rect x="-144" width="1728" fill="#ffffff" y="-80.999999" height="971.999992" fill-opacity="1"/><rect x="-144" width="1728" fill="#c3c8c8" y="-80.999999" height="971.999992" fill-opacity="1"/><g clip-path="url(#9c94756aba)"><path fill="#898e8e" d="M 1060.9375 405 L 1273.347656 405 L 1273.347656 755.144531 L 1060.9375 755.144531 Z M 1060.9375 405 " fill-opacity="1" fill-rule="nonzero"/></g><g clip-path="url(#8be6b1551a)"><g clip-path="url(#91b9d3249a)"><path fill="#898e8e" d="M 1340.78125 142.25 L 1539.21875 142.25 L 1539.21875 340.683594 L 1340.78125 340.683594 Z M 1340.78125 142.25 " fill-opacity="1" fill-rule="nonzero"/></g></g><g clip-path="url(#f04e6abdc4)"><g clip-path="url(#885fd29237)"><path fill="#898e8e" d="M -40.078125 285.328125 L 429.527344 285.328125 L 429.527344 754.933594 L -40.078125 754.933594 Z M -40.078125 285.328125 " fill-opacity="1" fill-rule="nonzero"/></g></g></svg>